<svg xmlns="http://www.w3.org/2000/svg" aria-hidden="true" style="position:absolute;width:0;height:0;overflow:hidden">
<defs>
<symbol id="icon-facebook" viewBox="0 0 32 32"><path stroke-linecap="round" stroke-linejoin="round" stroke-width="2" d="M24 2.667h-4a6.667 6.667 0 0 0-6.667 6.667v4h-4v5.333h4v10.667h5.333V18.667h4l1.333-5.333h-5.333v-4c0-.736.597-1.333 1.333-1.333h4V2.668z"/></symbol>
<symbol id="icon-instagram" viewBox="0 0 32 32"><path stroke-linecap="round" stroke-linejoin="round" stroke-width="2" d="M22.667 2.667H9.334a6.667 6.667 0 0 0-6.667 6.667v13.333a6.667 6.667 0 0 0 6.667 6.667h13.333a6.667 6.667 0 0 0 6.667-6.667V9.334a6.667 6.667 0 0 0-6.667-6.667z"/><path stroke-linecap="round" stroke-linejoin="round" stroke-width="2" d="M21.333 15.16a5.334 5.334 0 0 1-10.548 1.594l-.004-.03a5.334 5.334 0 0 1 10.548-1.594l.004.03zm2-6.493h.016"/></symbol>
<symbol id="icon-twitter" viewBox="0 0 32 32"><path stroke-linecap="round" stroke-linejoin="round" stroke-width="2" d="M30.667 4a14.37 14.37 0 0 1-4.084 2.013l-.103.027a5.973 5.973 0 0 0-10.479 4.004v-.004 1.333a14.197 14.197 0 0 1-11.97-5.996l-.03-.044s-5.333 12 6.667 17.333a15.387 15.387 0 0 1-9.364 2.666l.031.001c12 6.667 26.667 0 26.667-15.333 0-.372-.037-.741-.107-1.107a10.277 10.277 0 0 0 2.758-4.822L30.668 4z"/></symbol>
<symbol id="icon-x-close" viewBox="0 0 32 32"><path stroke-linejoin="round" stroke-linecap="round" stroke-miterlimit="4" stroke-width="2.2857" d="M24 8l-16 16M8 8l16 16"></path></symbol>
<symbol id="icon-menu" viewBox="0 0 32 32"><path stroke-linejoin="round" stroke-linecap="round" stroke-miterlimit="4" stroke-width="2.2857" d="M4 16h24M4 8h24M4 24h16"></path></symbol>
</symbol>
</symbol>
</defs>
</svg>